<mxfile host="app.diagrams.net" modified="2023-10-27T08:14:18.417Z" agent="Mozilla/5.0 (Macintosh; Intel Mac OS X 10_15_7) AppleWebKit/605.1.15 (KHTML, like Gecko) Version/17.0 Safari/605.1.15" version="22.0.8" etag="ZABPoZHwys6-JfRLfw4R" type="github">
  <diagram name="第 1 页" id="bp5cS6qxQyiobj73wXT5">
    <mxGraphModel>
      <root>
        <mxCell id="0" />
        <mxCell id="1" parent="0" />
      </root>
    </mxGraphModel>
  </diagram>
</mxfile>
